<mxfile host="Electron" modified="2023-09-16T16:12:06.922Z" agent="Mozilla/5.0 (Windows NT 10.0; Win64; x64) AppleWebKit/537.36 (KHTML, like Gecko) draw.io/21.7.5 Chrome/114.0.5735.289 Electron/25.8.1 Safari/537.36" etag="XBpSUbcH00D0_L1YCWF5" version="21.7.5" type="device">
  <diagram name="Page-1" id="D2dQORKgpYHnoLBMgU_W">
    <mxGraphModel dx="1036" dy="606" grid="1" gridSize="10" guides="1" tooltips="1" connect="1" arrows="1" fold="1" page="1" pageScale="1" pageWidth="827" pageHeight="1169" math="0" shadow="0">
      <root>
        <mxCell id="0" />
        <mxCell id="1" parent="0" />
        <mxCell id="DICU1yLNPjLrV4F4rq02-2" value="Categories of Furniture" style="rounded=0;whiteSpace=wrap;html=1;" vertex="1" parent="1">
          <mxGeometry x="40" y="190" width="120" height="60" as="geometry" />
        </mxCell>
        <mxCell id="DICU1yLNPjLrV4F4rq02-3" value="AR View of Furniture" style="rounded=0;whiteSpace=wrap;html=1;" vertex="1" parent="1">
          <mxGeometry x="640" y="190" width="120" height="60" as="geometry" />
        </mxCell>
        <mxCell id="DICU1yLNPjLrV4F4rq02-4" value="Augmented Reality&lt;br&gt;of&lt;br&gt;Furniture&lt;br&gt;" style="ellipse;whiteSpace=wrap;html=1;" vertex="1" parent="1">
          <mxGeometry x="355" y="170" width="140" height="80" as="geometry" />
        </mxCell>
        <mxCell id="DICU1yLNPjLrV4F4rq02-5" value="" style="endArrow=classic;html=1;rounded=0;exitX=1.027;exitY=0.326;exitDx=0;exitDy=0;exitPerimeter=0;entryX=0;entryY=0.5;entryDx=0;entryDy=0;" edge="1" parent="1" source="DICU1yLNPjLrV4F4rq02-2" target="DICU1yLNPjLrV4F4rq02-4">
          <mxGeometry width="50" height="50" relative="1" as="geometry">
            <mxPoint x="390" y="340" as="sourcePoint" />
            <mxPoint x="360" y="220" as="targetPoint" />
          </mxGeometry>
        </mxCell>
        <mxCell id="DICU1yLNPjLrV4F4rq02-6" value="" style="endArrow=classic;html=1;rounded=0;exitX=1;exitY=0.5;exitDx=0;exitDy=0;" edge="1" parent="1" source="DICU1yLNPjLrV4F4rq02-4">
          <mxGeometry width="50" height="50" relative="1" as="geometry">
            <mxPoint x="495" y="209.5" as="sourcePoint" />
            <mxPoint x="640" y="210" as="targetPoint" />
          </mxGeometry>
        </mxCell>
        <mxCell id="DICU1yLNPjLrV4F4rq02-7" value="Selected Product" style="rounded=0;whiteSpace=wrap;html=1;" vertex="1" parent="1">
          <mxGeometry x="210" y="150" width="100" height="30" as="geometry" />
        </mxCell>
        <mxCell id="DICU1yLNPjLrV4F4rq02-9" value="Camera Output" style="rounded=0;whiteSpace=wrap;html=1;" vertex="1" parent="1">
          <mxGeometry x="522" y="146" width="100" height="30" as="geometry" />
        </mxCell>
      </root>
    </mxGraphModel>
  </diagram>
</mxfile>
